<?xml version="1.0" encoding="UTF-8" standalone="no"?>
<svg
   xmlns:dc="http://purl.org/dc/elements/1.1/"
   xmlns:cc="http://creativecommons.org/ns#"
   xmlns:rdf="http://www.w3.org/1999/02/22-rdf-syntax-ns#"
   xmlns:svg="http://www.w3.org/2000/svg"
   xmlns="http://www.w3.org/2000/svg"
   xmlns:sodipodi="http://sodipodi.sourceforge.net/DTD/sodipodi-0.dtd"
   xmlns:inkscape="http://www.inkscape.org/namespaces/inkscape"
   width="48"
   height="48"
   viewBox="0 0 48 48"
   version="1.1"
   id="svg2"
   inkscape:version="0.91 r13725"
   sodipodi:docname="salesforce.svg">
  <metadata
     id="metadata20">
    <rdf:RDF>
      <cc:Work
         rdf:about="">
        <dc:format>image/svg+xml</dc:format>
        <dc:type
           rdf:resource="http://purl.org/dc/dcmitype/StillImage" />
        <dc:title>task</dc:title>
      </cc:Work>
    </rdf:RDF>
  </metadata>
  <sodipodi:namedview
     pagecolor="#ffffff"
     bordercolor="#666666"
     borderopacity="1"
     objecttolerance="10"
     gridtolerance="10"
     guidetolerance="10"
     inkscape:pageopacity="0"
     inkscape:pageshadow="2"
     inkscape:window-width="1763"
     inkscape:window-height="904"
     id="namedview18"
     showgrid="false"
     inkscape:zoom="7.1122449"
     inkscape:cx="24.5"
     inkscape:cy="20"
     inkscape:window-x="299"
     inkscape:window-y="172"
     inkscape:window-maximized="0"
     inkscape:current-layer="svg2" />
  <!-- Generator: Sketch 3.5.2 (25235) - http://www.bohemiancoding.com/sketch -->
  <title
     id="title4">task</title>
  <desc
     id="desc6">Created with Sketch.</desc>
  <defs
     id="defs8" />
  <path
     style="fill:#189cd8;fill-opacity:1;fill-rule:evenodd;stroke:none;stroke-width:1px;stroke-linecap:butt;stroke-linejoin:miter;stroke-opacity:1"
     d="M 10.038752,33.587447 C 4.0681639,34.152895 3.0490181,31.745171 1.9553975,29.958231 -0.76153551,25.518851 2.935049,20.280827 4.5622024,19.250327 3.0634395,12.106932 6.9822706,9.0353979 8.3602353,8.4294049 9.1658026,8.0751379 14.745649,4.5960629 20.025798,10.756236 22.433273,8.5719769 23.79988,7.8425739 26.351951,7.9305759 c 2.552072,0.088 3.928703,0.853061 6.688189,4.4781011 7.920222,-2.9040811 12.807833,1.752557 13.29751,7.438777 0.504592,5.859428 -5.547712,12.654085 -11.361456,11.149351 -1.436337,1.504734 -3.248766,3.123532 -4.800481,3.490469 -1.777447,0.420316 -3.179003,0.185588 -4.605759,-0.762392 -0.310977,-0.206622 -3.007007,4.787632 -6.276473,5.113724 -7.15472,0.713601 -9.035958,-5.201726 -9.035958,-5.201726 z"
     id="path4203"
     inkscape:connector-curvature="0"
     sodipodi:nodetypes="cscscscscssscc" />
  <text
     xml:space="preserve"
     style="font-style:normal;font-weight:normal;font-size:35.07878876px;line-height:125%;font-family:sans-serif;letter-spacing:0px;word-spacing:0px;fill:#ffffff;fill-opacity:1;stroke:none;stroke-width:1px;stroke-linecap:butt;stroke-linejoin:miter;stroke-opacity:1"
     x="6.9184318"
     y="30.809139"
     id="text4205"
     sodipodi:linespacing="125%"
     transform="scale(1.0058051,0.99422841)"><tspan
       sodipodi:role="line"
       id="tspan4207"
       x="6.9184318"
       y="30.809139">sf</tspan></text>
  <g
     transform="scale(1.0058051,0.99422841)"
     style="font-style:normal;font-weight:normal;font-size:35.07878876px;line-height:125%;font-family:sans-serif;letter-spacing:0px;word-spacing:0px;fill:#ffffff;fill-opacity:1;stroke:#189cd8;stroke-width:1px;stroke-linecap:butt;stroke-linejoin:miter;stroke-opacity:1"
     id="text4137">
    <path
       d="m 29.124225,8.7971136 c 0.06209,-0.4610371 0.155226,-0.8856766 0.279406,-1.2739184 0.12418,-0.3882418 0.279406,-0.7400859 0.465676,-1.0555323 0.186271,-0.3154465 0.403586,-0.5944953 0.651947,-0.8371464 0.993442,-0.9820234 2.569247,-1.4730351 4.727415,-1.4730351 l 2.980326,0 0,2.6206322 -3.014583,0 c -1.130469,0 -1.918371,0.2283775 -2.363708,0.6851325 -0.433917,0.4567551 -0.650875,1.2789142 -0.650875,2.4664774 l 0,1.6957035 5.189879,0"
       id="path4144"
       inkscape:connector-curvature="0"
       sodipodi:nodetypes="csscsccscscc" />
  </g>
</svg>
